Run_20002
nRows=4
nColumns=164

# SIMM Motion File Header:
name Run_20002
datacolumns 164
datarows 4
otherdata 1
range 2.82000000 2.85000000
endheader
time	pelvis_tilt	pelvis_list	pelvis_rotation	pelvis_tx	pelvis_ty	pelvis_tz	hip_flexion_r	hip_adduction_r	hip_rotation_r	knee_angle_r	ankle_angle_r	hip_flexion_l	hip_adduction_l	hip_rotation_l	knee_angle_l	ankle_angle_l	lumbar_extension	lumbar_bending	lumbar_rotation	arm_flex_r	arm_add_r	arm_rot_r	elbow_flex_r	pro_sup_r	arm_flex_l	arm_add_l	arm_rot_l	elbow_flex_l	pro_sup_l	subtalar_angle_r	mtp_angle_r	subtalar_angle_l	mtp_angle_l	wrist_flex_r	wrist_dev_r	wrist_flex_l	wrist_dev_l	LASI_tx	LASI_ty	LASI_tz	RASI_tx	RASI_ty	RASI_tz	LPSI_tx	LPSI_ty	LPSI_tz	RPSI_tx	RPSI_ty	RPSI_tz	RTH1_tx	RTH1_ty	RTH1_tz	RTH2_tx	RTH2_ty	RTH2_tz	RTH3_tx	RTH3_ty	RTH3_tz	LTH1_tx	LTH1_ty	LTH1_tz	LTH2_tx	LTH2_ty	LTH2_tz	LTH3_tx	LTH3_ty	LTH3_tz	RTB1_tx	RTB1_ty	RTB1_tz	RTB2_tx	RTB2_ty	RTB2_tz	RTB3_tx	RTB3_ty	RTB3_tz	LTB1_tx	LTB1_ty	LTB1_tz	LTB2_tx	LTB2_ty	LTB2_tz	LTB3_tx	LTB3_ty	LTB3_tz	RCAL_tx	RCAL_ty	RCAL_tz	RTOE_tx	RTOE_ty	RTOE_tz	RMT5_tx	RMT5_ty	RMT5_tz	LCAL_tx	LCAL_ty	LCAL_tz	LTOE_tx	LTOE_ty	LTOE_tz	LMT5_tx	LMT5_ty	LMT5_tz	LACR_tx	LACR_ty	LACR_tz	RACR_tx	RACR_ty	RACR_tz	CLAV_tx	CLAV_ty	CLAV_tz	C7_tx	C7_ty	C7_tz	RUA1_tx	RUA1_ty	RUA1_tz	RUA2_tx	RUA2_ty	RUA2_tz	RUA3_tx	RUA3_ty	RUA3_tz	RLEL_tx	RLEL_ty	RLEL_tz	RMEL_tx	RMEL_ty	RMEL_tz	LUA1_tx	LUA1_ty	LUA1_tz	LUA2_tx	LUA2_ty	LUA2_tz	LUA3_tx	LUA3_ty	LUA3_tz	LLEL_tx	LLEL_ty	LLEL_tz	LMEL_tx	LMEL_ty	LMEL_tz	RFAsuperior_tx	RFAsuperior_ty	RFAsuperior_tz	RFAradius_tx	RFAradius_ty	RFAradius_tz	RFAulna_tx	RFAulna_ty	RFAulna_tz	LFAsuperior_tx	LFAsuperior_ty	LFAsuperior_tz	LFAradius_tx	LFAradius_ty	LFAradius_tz	LFAulna_tx	LFAulna_ty	LFAulna_tz
      2.82000000	    -11.68294871	      0.35682254	      0.18567264	      1.03022616	      1.04917811	     -0.35398652	      2.08580021	      3.31865682	     -1.22786086	    -21.30365586	     -5.98192657	     36.72290127	      2.81449485	     -1.73124591	    -35.30300612	      5.89247541	     -1.73172480	     -0.11009664	      9.44415330	    -12.50619035	    -19.14216079	     -3.04488297	    118.67471945	    114.76467802	    -34.72248829	    -16.11299242	     -8.77381267	    129.35739939	     93.19238856	      0.00000000	      0.00000000	      0.00000000	      0.00000000	      0.00000000	      0.00000000	      0.00000000	      0.00000000	      1.04477211	      1.08810715	     -0.47915888	      1.05047564	      1.09271931	     -0.22789164	      0.88673267	      1.14924628	     -0.41158155	      0.88806748	      1.14302383	     -0.29900757	      0.95617564	      0.96172658	     -0.18417347	      0.87783247	      0.82644536	     -0.20619149	      0.88871340	      0.67148466	     -0.22421133	      1.00657216	      0.96676865	     -0.53723599	      0.98883660	      0.80266992	     -0.48891985	      1.08902169	      0.69849158	     -0.48581548	      0.84893792	      0.41415677	     -0.30139860	      0.75764986	      0.40711063	     -0.23579537	      0.73528394	      0.26303669	     -0.32029900	      1.17201716	      0.48303890	     -0.42993330	      1.06825345	      0.38874530	     -0.47575330	      1.11220055	      0.27426293	     -0.41888486	      0.56912838	      0.21468402	     -0.31732722	      0.75384782	      0.07058651	     -0.36271533	      0.70416623	      0.06517322	     -0.26530351	      0.97098824	      0.15196775	     -0.38329387	      1.20676616	      0.12550675	     -0.39216741	      1.15033422	      0.07606761	     -0.47387600	      1.01399519	      1.57727437	     -0.50868837	      1.07513729	      1.55306102	     -0.19755134	      1.10701491	      1.52065465	     -0.33291904	      0.98276027	      1.59039624	     -0.34641132	      0.99298199	      1.45108055	     -0.11281331	      1.04376603	      1.39012530	     -0.10552194	      0.99943812	      1.30523877	     -0.05492529	      0.98294950	      1.23930085	     -0.03068784	      0.95957708	      1.22020621	     -0.11656199	      0.89282633	      1.50626584	     -0.55235554	      0.90534649	      1.42891086	     -0.58849525	      0.81807169	      1.38322021	     -0.60432294	      0.78888713	      1.32043580	     -0.62296855	      0.78410078	      1.29297219	     -0.53585251	      1.08112821	      1.22025637	     -0.07253338	      1.19237932	      1.24643084	     -0.21180883	      1.20851169	      1.19260291	     -0.16951160	      0.85731641	      1.27523644	     -0.62747595	      1.03303339	      1.29106328	     -0.56334244	      1.02665441	      1.22233998	     -0.58629015
      2.83000000	    -11.63546349	      0.45998330	      0.34645170	      1.03142806	      1.05261440	     -0.35477086	      1.28461598	      3.03433971	     -1.70761165	    -21.54712247	     -8.22220233	     35.35805778	      3.42283586	     -1.50489396	    -29.80772971	      5.30282599	     -1.76526327	     -0.24954864	      9.27256421	    -12.54843113	    -19.41067835	     -2.44843391	    119.79520431	    114.74306885	    -34.65408343	    -15.98120543	     -9.24440142	    130.59667476	     92.59263479	      0.00000000	      0.00000000	      0.00000000	      0.00000000	      0.00000000	      0.00000000	      0.00000000	      0.00000000	      1.04554979	      1.09162227	     -0.47954098	      1.05173302	      1.09590100	     -0.22844408	      0.88761632	      1.15253654	     -0.41151894	      0.88919447	      1.14624550	     -0.29894156	      0.95684640	      0.96512571	     -0.18407167	      0.87721274	      0.83077511	     -0.20572867	      0.88591488	      0.67595985	     -0.22380209	      1.00624625	      0.96944198	     -0.53798560	      0.98570271	      0.80503729	     -0.48887891	      1.08395959	      0.69907791	     -0.48606860	      0.84166142	      0.41881203	     -0.30011125	      0.74988030	      0.41355699	     -0.23509604	      0.72601775	      0.26923529	     -0.31903843	      1.17300901	      0.48512943	     -0.42825051	      1.07603212	      0.38395474	     -0.47384495	      1.12688504	      0.27298403	     -0.41545448	      0.56053965	      0.22631925	     -0.31615029	      0.73729539	      0.07201183	     -0.36235036	      0.68778858	      0.06916385	     -0.26472654	      0.99425404	      0.14125935	     -0.37993452	      1.23108589	      0.13223359	     -0.38478812	      1.17989372	      0.07587021	     -0.46555077	      1.01503768	      1.58096988	     -0.50875069	      1.07629637	      1.55675801	     -0.19841135	      1.10769083	      1.52392988	     -0.33365222	      0.98346432	      1.59368190	     -0.34661838	      0.99432670	      1.45529434	     -0.11312403	      1.04526382	      1.39437441	     -0.10577126	      1.00132026	      1.30981214	     -0.05439661	      0.98493150	      1.24370201	     -0.03019285	      0.96046383	      1.22471455	     -0.11588515	      0.89347358	      1.51100437	     -0.55295359	      0.90611162	      1.43313048	     -0.58869167	      0.81894828	      1.38689777	     -0.60435761	      0.79022030	      1.32356213	     -0.62275143	      0.78626338	      1.29568891	     -0.53561451	      1.08247937	      1.22619964	     -0.07373659	      1.19124786	      1.25442483	     -0.21404313	      1.20911253	      1.20041028	     -0.17272630	      0.85946681	      1.28010457	     -0.62762907	      1.03503058	      1.30002674	     -0.56447281	      1.03014350	      1.23079063	     -0.58678905
      2.84000000	    -11.52286165	      0.42831842	      0.41740133	      1.03275950	      1.05514741	     -0.35540784	      0.66035806	      2.89348547	     -2.05949519	    -22.24205898	    -10.19781305	     33.89876276	      3.84560178	     -1.08225048	    -24.61621980	      4.70076271	     -1.83758048	     -0.22593000	      9.15221548	    -12.66621353	    -19.71656791	     -1.82548301	    120.60545291	    114.32056047	    -34.46689610	    -15.83300640	     -9.64383865	    131.84639136	     92.20266186	      0.00000000	      0.00000000	      0.00000000	      0.00000000	      0.00000000	      0.00000000	      0.00000000	      0.00000000	      1.04645711	      1.09405529	     -0.47967076	      1.05288307	      1.09816764	     -0.22921629	      0.88846524	      1.15477339	     -0.41163623	      0.89021449	      1.14855396	     -0.29909841	      0.95776056	      0.96787781	     -0.18374163	      0.87747247	      0.83415743	     -0.20532902	      0.88457570	      0.67939988	     -0.22340183	      1.00620975	      0.97108037	     -0.53830938	      0.98349575	      0.80667957	     -0.48873185	      1.07917965	      0.69862992	     -0.48641632	      0.83594489	      0.42250668	     -0.29874174	      0.74372732	      0.41939369	     -0.23423167	      0.71769103	      0.27495578	     -0.31751232	      1.17312804	      0.48617262	     -0.42677225	      1.08252378	      0.37921478	     -0.47179885	      1.13978806	      0.27178945	     -0.41224555	      0.55297941	      0.23791871	     -0.31458707	      0.72116920	      0.07392299	     -0.36173406	      0.67197008	      0.07349280	     -0.26405404	      1.01579937	      0.13195821	     -0.37654940	      1.25244373	      0.13924030	     -0.37807753	      1.20656717	      0.07657470	     -0.45749671	      1.01592278	      1.58404710	     -0.50882553	      1.07712078	      1.55971449	     -0.19912939	      1.10824079	      1.52643035	     -0.33422590	      0.98402484	      1.59614657	     -0.34687160	      0.99544987	      1.45861622	     -0.11340153	      1.04651937	      1.39769786	     -0.10612662	      1.00266881	      1.31349184	     -0.05399774	      0.98630566	      1.24736353	     -0.02962927	      0.96090980	      1.22837790	     -0.11517931	      0.89422990	      1.51448495	     -0.55377821	      0.90722900	      1.43617407	     -0.58896765	      0.82026747	      1.38921253	     -0.60460819	      0.79218325	      1.32525695	     -0.62279094	      0.78890995	      1.29699243	     -0.53567515	      1.08325031	      1.23057895	     -0.07449943	      1.18977184	      1.26014321	     -0.21561069	      1.20900312	      1.20563295	     -0.17561847	      0.86231380	      1.28374480	     -0.62787535	      1.03742750	      1.30809095	     -0.56528257	      1.03434235	      1.23848147	     -0.58720055
      2.85000000	    -11.36412832	      0.27880554	      0.39375620	      1.03415366	      1.05672341	     -0.35587272	      0.24967358	      2.88400793	     -2.21709479	    -23.41273690	    -11.87721383	     32.47542964	      4.05464420	     -0.59192893	    -19.98653613	      4.11238692	     -1.92711606	     -0.06307138	      9.08465835	    -12.87067531	    -20.03324288	     -1.22383112	    121.13268633	    113.49288728	    -34.14167855	    -15.67707156	     -9.97999429	    133.09954851	     92.06501869	      0.00000000	      0.00000000	      0.00000000	      0.00000000	      0.00000000	      0.00000000	      0.00000000	      0.00000000	      1.04750977	      1.09545105	     -0.47968458	      1.05389001	      1.09951431	     -0.23018748	      0.88932388	      1.15591941	     -0.41196266	      0.89109154	      1.14994323	     -0.29945634	      0.95886217	      0.96986183	     -0.18339537	      0.87843927	      0.83635277	     -0.20499544	      0.88467065	      0.68157709	     -0.22303201	      1.00659340	      0.97177879	     -0.53827775	      0.98225399	      0.80755325	     -0.48839943	      1.07487443	      0.69732957	     -0.48648761	      0.83187946	      0.42511066	     -0.29747263	      0.73933810	      0.42444401	     -0.23318865	      0.71040704	      0.28017679	     -0.31588309	      1.17263443	      0.48622528	     -0.42557905	      1.08760600	      0.37458437	     -0.46950740	      1.15074040	      0.27060170	     -0.40940553	      0.54637637	      0.24943587	     -0.31246792	      0.70563451	      0.07642336	     -0.36087045	      0.65673511	      0.07807766	     -0.26336201	      1.03493435	      0.12422565	     -0.37321438	      1.27055665	      0.14574778	     -0.37247471	      1.22947634	      0.07778477	     -0.45025933	      1.01661368	      1.58635036	     -0.50884115	      1.07758899	      1.56177078	     -0.19981208	      1.10857306	      1.52809775	     -0.33472476	      0.98437778	      1.59774444	     -0.34717415	      0.99622381	      1.46099361	     -0.11367546	      1.04734927	      1.40011058	     -0.10652490	      1.00333362	      1.31631580	     -0.05374417	      0.98693443	      1.25023512	     -0.02910674	      0.96076885	      1.23114509	     -0.11450190	      0.89505962	      1.51654041	     -0.55481091	      0.90871799	      1.43788253	     -0.58938601	      0.82203867	      1.39004911	     -0.60511101	      0.79476439	      1.32541691	     -0.62314499	      0.79208878	      1.29678887	     -0.53602506	      1.08337392	      1.23338059	     -0.07495474	      1.18797449	      1.26371164	     -0.21639901	      1.20815450	      1.20843420	     -0.17802323	      0.86588946	      1.28605023	     -0.62830254	      1.04026393	      1.31515238	     -0.56578427	      1.03925883	      1.24544844	     -0.58757016
